<svg viewBox="0 0 120 120" xmlns="http://www.w3.org/2000/svg" role="img" aria-label="Salisco">
  <defs>
    <linearGradient id="steel" x1="0" y1="0" x2=".9" y2="1">
      <stop offset="0" stop-color="#f4f8fd"/>
      <stop offset=".45" stop-color="#cdddf0"/>
      <stop offset="1" stop-color="#8aacd6"/>
    </linearGradient>
    <linearGradient id="blue" x1=".1" y1="0" x2=".9" y2="1">
      <stop offset="0" stop-color="#3a8bef"/>
      <stop offset=".5" stop-color="#0a5fc0"/>
      <stop offset="1" stop-color="#00408a"/>
    </linearGradient>
    <linearGradient id="bluedeep" x1="0" y1="0" x2=".8" y2="1">
      <stop offset="0" stop-color="#0c66c8"/>
      <stop offset="1" stop-color="#012f63"/>
    </linearGradient>
    <linearGradient id="orange" x1="0" y1="0" x2=".7" y2="1">
      <stop offset="0" stop-color="#ff8a33"/>
      <stop offset=".5" stop-color="#ef6a1f"/>
      <stop offset="1" stop-color="#cc4f10"/>
    </linearGradient>
  </defs>
  <!-- orange under-fold (ribbon flipping beneath the bottom band) -->
  <polygon points="58,70 102,70 88,102 60,96" fill="url(#orange)"/>
  <polygon points="58,70 102,70 96,78 58,78" fill="#ffffff" opacity=".18"/>
  <!-- top ribbon (steel highlight) -->
  <polygon points="40,18 102,18 84,44 22,44" fill="url(#steel)"/>
  <!-- middle ribbon (bright blue diagonal) -->
  <polygon points="22,44 84,44 100,70 38,70" fill="url(#blue)"/>
  <!-- bottom ribbon (deep blue) -->
  <polygon points="38,70 100,70 82,94 20,94" fill="url(#bluedeep)"/>
  <!-- fold highlights / bevels -->
  <polygon points="40,18 102,18 98,24 36,24" fill="#ffffff" opacity=".4"/>
  <polygon points="22,44 84,44 81,49 19,49" fill="#ffffff" opacity=".14"/>
  <polygon points="38,70 100,70 97,75 35,75" fill="#9fc6f5" opacity=".22"/>
</svg>
