<svg viewBox="0 0 120 120" xmlns="http://www.w3.org/2000/svg" role="img" aria-label="Salisco">
  <defs>
    <linearGradient id="steel" x1="0" y1="0" x2="1" y2="1">
      <stop offset="0" stop-color="#eef4fc"/>
      <stop offset=".55" stop-color="#c2d4ec"/>
      <stop offset="1" stop-color="#8fb0d8"/>
    </linearGradient>
    <linearGradient id="blue" x1="0" y1="0" x2="1" y2="1">
      <stop offset="0" stop-color="#2f80e6"/>
      <stop offset=".5" stop-color="#0055b4"/>
      <stop offset="1" stop-color="#003a7d"/>
    </linearGradient>
    <linearGradient id="bluedeep" x1="0" y1="0" x2="1" y2="1">
      <stop offset="0" stop-color="#0a63c4"/>
      <stop offset="1" stop-color="#013268"/>
    </linearGradient>
    <linearGradient id="orange" x1="0" y1="0" x2="1" y2="1">
      <stop offset="0" stop-color="#ef7a2a"/>
      <stop offset="1" stop-color="#ce5c17"/>
    </linearGradient>
  </defs>
  <!-- orange under-fold (peeks beneath bottom ribbon) -->
  <polygon points="58,74 96,74 80,98 60,92" fill="url(#orange)"/>
  <!-- top ribbon (steel highlight) -->
  <polygon points="40,20 100,20 82,44 22,44" fill="url(#steel)"/>
  <!-- middle ribbon (bright blue diagonal) -->
  <polygon points="22,44 82,44 98,68 38,68" fill="url(#blue)"/>
  <!-- bottom ribbon (deep blue) -->
  <polygon points="38,68 98,68 80,92 20,92" fill="url(#bluedeep)"/>
  <!-- fold highlights -->
  <polygon points="40,20 100,20 96,25 36,25" fill="#ffffff" opacity=".35"/>
  <polygon points="22,44 82,44 80,48 20,48" fill="#ffffff" opacity=".12"/>
</svg>
